<svg width="29" height="26" viewBox="0 0 29 26" sty fill="none" xmlns="http://www.w3.org/2000/svg">
<g clip-path="url(#clip0_226_885)">
<path fill-rule="evenodd" clip-rule="evenodd" d="M0 22.1342V13.6553C0 10.1658 1.52413 6.81974 4.23805 4.35263C6.95198 1.88553 10.6328 0.5 14.4714 0.5H14.4743C22.4684 0.5 28.9485 6.39079 28.9485 13.6579V22.1342C28.9485 23.9934 27.4287 25.5 25.5543 25.5H23.6582C21.7838 25.5 20.264 23.9934 20.264 22.1342V18.3395C20.264 16.4803 21.7838 14.9737 23.6582 14.9737H25.5543C25.7237 14.9737 25.8901 14.9855 26.0537 15.0092V13.6579C26.0537 7.84474 20.869 3.13158 14.4743 3.13158H14.4714C11.4014 3.13158 8.45587 4.24079 6.28618 6.21447C4.11504 8.18684 2.89485 10.8645 2.89485 13.6553V15.0105C3.05841 14.9855 3.22487 14.9737 3.39422 14.9737H5.29034C7.16476 14.9737 8.68456 16.4803 8.68456 18.3395V22.1342C8.68456 23.9934 7.16476 25.5 5.29034 25.5H3.39422C1.5198 25.5 0 23.9934 0 22.1342Z" fill="black"/>
</g>
<defs>
<clipPath id="clip0_226_885">
<rect width="29" height="25" fill="white" transform="translate(0 0.5)"/>
</clipPath>
</defs>
</svg>
