<svg width="40" height="40" viewBox="0 0 40 40" fill="none" xmlns="http://www.w3.org/2000/svg">
<path d="M24.5517 21.7891L29.1331 26.3705C29.8462 27.0835 29.8462 28.2395 29.1331 28.9526C28.4201 29.6656 27.264 29.6656 26.551 28.9526L22.896 25.2976" stroke="white" stroke-width="1.5" stroke-miterlimit="10" stroke-linecap="round" stroke-linejoin="round"/>
<path d="M22.8959 25.2969L26.1554 28.5564C26.8685 29.2695 26.8685 30.4255 26.1554 31.1385C25.4424 31.8516 24.2863 31.8516 23.5733 31.1385L21.2251 28.7903" stroke="white" stroke-width="1.5" stroke-miterlimit="10" stroke-linecap="round" stroke-linejoin="round"/>
<path d="M21.2248 28.7891L22.6566 30.2209C23.3696 30.9339 23.3696 32.0899 22.6566 32.803C21.9436 33.516 20.7875 33.516 20.0745 32.803L19.4053 32.1337" stroke="white" stroke-width="1.5" stroke-miterlimit="10" stroke-linecap="round" stroke-linejoin="round"/>
<path d="M31.1627 11.6699L30.7753 11.8633C29.3805 12.5593 27.7602 12.649 26.297 12.111C24.2275 11.3502 21.9295 11.5263 20.0001 12.5935L16.5995 14.4747C15.4881 15.0895 15.1499 16.5291 15.8712 17.5745C16.4273 18.3803 17.4579 18.7083 18.3774 18.3719L22.6601 16.805C23.5856 16.4664 24.6236 16.6956 25.3206 17.3925L31.7153 23.7873C32.4284 24.5003 32.4284 25.6564 31.7153 26.3694C31.0023 27.0824 29.8463 27.0824 29.1332 26.3694L24.0832 21.3194" stroke="white" stroke-width="1.5" stroke-miterlimit="10" stroke-linecap="round" stroke-linejoin="round"/>
<path d="M20.0004 12.5936C18.0709 11.5263 15.7729 11.3502 13.7034 12.1111C12.2403 12.6491 10.62 12.5594 9.22512 11.8634L8.85254 11.6774" stroke="white" stroke-width="1.5" stroke-miterlimit="10" stroke-linecap="round" stroke-linejoin="round"/>
<path d="M31.8076 23.7182L35.1243 21.9531" stroke="white" stroke-width="1.5" stroke-miterlimit="10" stroke-linecap="round" stroke-linejoin="round"/>
<path d="M7.82191 23.4221L5.05957 21.2344" stroke="white" stroke-width="1.5" stroke-miterlimit="10" stroke-linecap="round" stroke-linejoin="round"/>
<path d="M15.5151 25.6325L13.6003 27.5474C12.8872 28.2604 11.7312 28.2604 11.0182 27.5474C10.3051 26.8343 10.3051 25.6783 11.0182 24.9653L12.933 23.0504C13.6461 22.3374 14.8021 22.3374 15.5151 23.0504C16.2282 23.7635 16.2282 24.9195 15.5151 25.6325Z" stroke="white" stroke-width="1.5" stroke-miterlimit="10" stroke-linecap="round" stroke-linejoin="round"/>
<path d="M18.0972 28.2146L16.1823 30.1294C15.4693 30.8424 14.3133 30.8424 13.6002 30.1294C12.8872 29.4163 12.8872 28.2603 13.6002 27.5473L15.5151 25.6324C16.2281 24.9194 17.3841 24.9194 18.0972 25.6324C18.8102 26.3455 18.8102 27.5015 18.0972 28.2146Z" stroke="white" stroke-width="1.5" stroke-miterlimit="10" stroke-linecap="round" stroke-linejoin="round"/>
<path d="M19.8688 31.6052L19.194 32.2799C18.481 32.993 17.325 32.993 16.6119 32.2799C15.8989 31.5669 15.8989 30.4109 16.6119 29.6978L17.2867 29.0231C17.9997 28.31 19.1558 28.31 19.8688 29.0231C20.5819 29.7361 20.5819 30.8921 19.8688 31.6052Z" stroke="white" stroke-width="1.5" stroke-miterlimit="10" stroke-linecap="round" stroke-linejoin="round"/>
<path d="M9.28842 21.5308L8.43615 22.3831C7.72311 23.0961 7.72311 24.2521 8.43615 24.9652C9.1492 25.6782 10.3052 25.6782 11.0183 24.9652L11.8705 24.1129C12.5836 23.3999 12.5836 22.2439 11.8705 21.5308C11.1575 20.8179 10.0015 20.8179 9.28842 21.5308Z" stroke="white" stroke-width="1.5" stroke-miterlimit="10" stroke-linecap="round" stroke-linejoin="round"/>
<path d="M39.2186 21.9004L35.8047 23.1284L30.5181 9.97859L36.7183 6.66406L39.2186 21.9004Z" stroke="white" stroke-width="1.5" stroke-miterlimit="10" stroke-linecap="round" stroke-linejoin="round"/>
<path d="M0.78125 21.9004L4.19516 23.1284L9.4818 9.97859L3.28156 6.66406L0.78125 21.9004Z" stroke="white" stroke-width="1.5" stroke-miterlimit="10" stroke-linecap="round" stroke-linejoin="round"/>
</svg>
