<svg width="40" height="40" viewBox="0 0 40 40" fill="none" xmlns="http://www.w3.org/2000/svg">
<g clip-path="url(#clip0_702_2527)">
<path d="M19.9219 31.7969C19.9219 33.0913 18.8726 34.1406 17.5781 34.1406H15.2344V38.8281H1.17188V24.7656H5.85938V27.062C5.85938 28.3427 6.86688 29.4227 8.14727 29.4525C8.81625 29.4681 9.42375 29.2028 9.86016 28.7664C10.2844 28.3422 10.5469 27.7562 10.5469 27.1094V24.7656H15.2344V29.4531H17.5781C18.8726 29.4531 19.9219 30.5024 19.9219 31.7969Z" stroke="white" stroke-width="1.5" stroke-miterlimit="10" stroke-linecap="round" stroke-linejoin="round"/>
<path d="M11.2336 16.0773C10.8094 16.5016 10.5469 17.0875 10.5469 17.7344C10.5469 19.0289 11.5961 20.0781 12.8906 20.0781H15.2344V24.7656H10.5469V27.1094C10.5469 27.7562 10.2844 28.3422 9.86016 28.7664C9.43594 29.1906 8.85 29.4531 8.20312 29.4531C6.90859 29.4531 5.85938 28.4039 5.85938 27.1094V24.7656H1.17188V10.7031H15.2344V15.3906H12.8906C12.2438 15.3906 11.6578 15.6531 11.2336 16.0773Z" stroke="white" stroke-width="1.5" stroke-miterlimit="10" stroke-linecap="round" stroke-linejoin="round"/>
<path d="M38.8281 1.17188V15.2344H34.1406V12.8906C34.1406 12.2438 33.8781 11.6578 33.4539 11.2336C33.0297 10.8094 32.4437 10.5469 31.7969 10.5469C30.5023 10.5469 29.4531 11.5961 29.4531 12.8906V15.2344H24.7656V10.5469H22.4219C21.775 10.5469 21.1891 10.2844 20.7648 9.86016C20.3406 9.43594 20.0781 8.85 20.0781 8.20312C20.0781 6.90859 21.1273 5.85938 22.4219 5.85938H24.7656V1.17188H38.8281Z" stroke="white" stroke-width="1.5" stroke-miterlimit="10" stroke-linecap="round" stroke-linejoin="round"/>
<path d="M33.9836 31.7406C33.9992 32.4102 33.7344 33.0172 33.2977 33.4539C32.8734 33.8781 32.2875 34.1407 31.6406 34.1407H29.2969V38.8282H15.2344V34.1407H17.5781C18.8726 34.1407 19.9219 33.0914 19.9219 31.7969C19.9219 30.5024 18.8726 29.4531 17.5781 29.4531H15.2344V24.7656H19.9219V22.4219C19.9219 21.775 20.1844 21.1891 20.6086 20.7649C21.045 20.3285 21.6526 20.0632 22.3215 20.0788C23.6019 20.1087 24.6094 21.1886 24.6094 22.4693V24.7656H29.2969V29.4531H31.593C32.8742 29.4531 33.9539 30.461 33.9836 31.7406Z" stroke="white" stroke-width="1.5" stroke-miterlimit="10" stroke-linecap="round" stroke-linejoin="round"/>
</g>
<defs>
<clipPath id="clip0_702_2527">
<rect width="40" height="40" fill="white"/>
</clipPath>
</defs>
</svg>
