<svg width="40" height="40" viewBox="0 0 40 40" fill="none" xmlns="http://www.w3.org/2000/svg">
<g clip-path="url(#clip0_702_2567)">
<path d="M32.8172 17.1055L19.9993 24.5059L7.20312 17.118" stroke="white" stroke-width="1.5" stroke-miterlimit="10" stroke-linecap="round" stroke-linejoin="round"/>
<path d="M20 38.9386V24.5078" stroke="white" stroke-width="1.5" stroke-miterlimit="10" stroke-linecap="round" stroke-linejoin="round"/>
<path d="M10.9702 30.3203L14.8113 32.538" stroke="white" stroke-width="1.5" stroke-miterlimit="10" stroke-linecap="round" stroke-linejoin="round"/>
<path d="M29.763 29.8828V33.9255L22.9531 37.8572V33.8188L29.763 29.8828Z" stroke="white" stroke-width="1.5" stroke-miterlimit="10" stroke-linecap="round" stroke-linejoin="round"/>
<path d="M6.96094 25.0742V27.1474" stroke="white" stroke-width="1.5" stroke-miterlimit="10" stroke-linecap="round" stroke-linejoin="round"/>
<path d="M16.4168 11.5195L7.43897 16.7028C7.29123 16.7881 7.17178 16.9096 7.08936 17.0524" stroke="white" stroke-width="1.5" stroke-miterlimit="10" stroke-linecap="round" stroke-linejoin="round"/>
<path d="M32.945 17.1186C32.8631 16.9473 32.7307 16.8012 32.5606 16.703L23.6299 11.5469" stroke="white" stroke-width="1.5" stroke-miterlimit="10" stroke-linecap="round" stroke-linejoin="round"/>
<path d="M6.96094 29.4115V31.4815C6.96094 31.8227 7.14297 32.138 7.43852 32.3088L19.522 39.2852C19.8175 39.4558 20.1816 39.4558 20.4772 39.2852L32.5606 32.3088C32.8562 32.1381 33.0382 31.8228 33.0382 31.4815V25.0469" stroke="white" stroke-width="1.5" stroke-miterlimit="10" stroke-linecap="round" stroke-linejoin="round"/>
<path d="M19.9996 24.5052L15.5399 29.2437C15.3158 29.4817 14.9574 29.5345 14.6743 29.371L3.13222 22.7071C2.73854 22.4798 2.65987 21.9448 2.97143 21.6137L7.20354 17.1172L19.9996 24.5052Z" stroke="white" stroke-width="1.5" stroke-miterlimit="10" stroke-linecap="round" stroke-linejoin="round"/>
<path d="M30.6969 26.2697L36.8674 22.7071C37.2611 22.4798 37.3398 21.9448 37.0282 21.6137L32.7961 17.1172L20 24.5052L24.4598 29.2437C24.6838 29.4817 25.0422 29.5345 25.3253 29.371L28.7334 27.4034" stroke="white" stroke-width="1.5" stroke-miterlimit="10" stroke-linecap="round" stroke-linejoin="round"/>
<path d="M23.1976 15H16.8018V17.6632C16.8018 18.9529 17.8472 19.9984 19.1369 19.9984H20.8624C22.1521 19.9984 23.1975 18.9529 23.1975 17.6632V15H23.1976Z" stroke="white" stroke-width="1.5" stroke-miterlimit="10" stroke-linecap="round" stroke-linejoin="round"/>
<path d="M20.0112 3.80078V7.10352" stroke="white" stroke-width="1.5" stroke-miterlimit="10" stroke-linecap="round" stroke-linejoin="round"/>
<path d="M20.0112 9.59766V10.4766" stroke="white" stroke-width="1.5" stroke-miterlimit="10" stroke-linecap="round" stroke-linejoin="round"/>
<path d="M10.2051 2.18359L12.2349 3.17898" stroke="white" stroke-width="1.5" stroke-miterlimit="10" stroke-linecap="round" stroke-linejoin="round"/>
<path d="M9.29395 6.10547H11.5302" stroke="white" stroke-width="1.5" stroke-miterlimit="10" stroke-linecap="round" stroke-linejoin="round"/>
<path d="M10.4126 10.7484L12.236 9.59766" stroke="white" stroke-width="1.5" stroke-miterlimit="10" stroke-linecap="round" stroke-linejoin="round"/>
<path d="M29.8144 2.18359L27.7847 3.17898" stroke="white" stroke-width="1.5" stroke-miterlimit="10" stroke-linecap="round" stroke-linejoin="round"/>
<path d="M30.7255 6.10547H28.4893" stroke="white" stroke-width="1.5" stroke-miterlimit="10" stroke-linecap="round" stroke-linejoin="round"/>
<path d="M29.608 10.7484L27.7847 9.59766" stroke="white" stroke-width="1.5" stroke-miterlimit="10" stroke-linecap="round" stroke-linejoin="round"/>
<path d="M14.3882 4.43921C14.1508 5.05031 14.0106 5.70867 13.9878 6.39554C13.9126 8.65749 15.0869 10.6515 16.8734 11.7402C17.3595 12.0364 17.6567 12.5637 17.6567 13.1329V15.0016H22.3411V13.1329C22.3411 12.5631 22.6391 12.036 23.1256 11.7394C24.8572 10.6835 26.0134 8.77702 26.0134 6.60046C26.0134 3.23046 23.2418 0.507806 19.8538 0.58765C18.178 0.627103 16.6633 1.36421 15.5925 2.51843" stroke="white" stroke-width="1.5" stroke-miterlimit="10" stroke-linecap="round" stroke-linejoin="round"/>
</g>
<defs>
<clipPath id="clip0_702_2567">
<rect width="40" height="40" fill="white"/>
</clipPath>
</defs>
</svg>
