<svg width="40" height="40" viewBox="0 0 40 40" fill="none" xmlns="http://www.w3.org/2000/svg">
<g clip-path="url(#clip0_702_2535)">
<path d="M4.254 25.4873L0.780273 28.1055L9.1583 39.2214L12.632 36.6033L4.254 25.4873Z" stroke="white" stroke-width="1.5" stroke-miterlimit="10" stroke-linecap="round" stroke-linejoin="round"/>
<path d="M5.30127 26.8749L9.4283 23.764C9.95814 23.3647 10.6202 23.1821 11.2798 23.2534L23.8844 24.6161C25.0405 24.8349 25.8208 25.9231 25.6573 27.0883C25.488 28.2939 24.3813 29.0783 23.1758 28.909L16.5098 28.231" stroke="white" stroke-width="1.5" stroke-miterlimit="10" stroke-linecap="round" stroke-linejoin="round"/>
<path d="M24.9659 28.3947L35.7338 20.2781C36.6929 19.5551 38.0567 19.7466 38.7796 20.7058C39.5026 21.6649 39.3112 23.0287 38.352 23.7516L24.9729 33.8365C24.4207 34.2527 23.726 34.4328 23.0411 34.3372L15.4429 33.2765C14.7525 33.1751 14.0502 33.3545 13.4929 33.7745L11.585 35.2126" stroke="white" stroke-width="1.5" stroke-miterlimit="10" stroke-linecap="round" stroke-linejoin="round"/>
<path d="M24.1191 24.6742L31.9026 18.8072C33.0537 17.9396 34.6899 18.1692 35.5577 19.3203L36.1075 20.0498" stroke="white" stroke-width="1.5" stroke-miterlimit="10" stroke-linecap="round" stroke-linejoin="round"/>
<path d="M21.9819 24.4089V5.87891" stroke="white" stroke-width="1.5" stroke-miterlimit="10" stroke-linecap="round" stroke-linejoin="round"/>
<path d="M32.3085 9.37973C30.4348 8.84973 28.3712 9.29504 26.9335 10.7329C25.4957 12.1707 25.0505 14.2343 25.5804 16.1079C27.454 16.6379 29.5176 16.1925 30.9554 14.7547C32.3932 13.317 32.8384 11.2534 32.3085 9.37973Z" stroke="white" stroke-width="1.5" stroke-miterlimit="10" stroke-linecap="round" stroke-linejoin="round"/>
<path d="M21.9821 0.78125C20.2825 1.73141 19.1381 3.50539 19.1382 5.53875C19.1382 7.57211 20.2825 9.34617 21.9821 10.2963C23.6817 9.3461 24.8261 7.57203 24.826 5.53875C24.8261 3.50539 23.6817 1.73141 21.9821 0.78125Z" stroke="white" stroke-width="1.5" stroke-miterlimit="10" stroke-linecap="round" stroke-linejoin="round"/>
<path d="M28.3569 13.332L21.9819 19.707" stroke="white" stroke-width="1.5" stroke-miterlimit="10" stroke-linecap="round" stroke-linejoin="round"/>
<path d="M13.0082 14.7547C14.4459 16.1925 16.5095 16.6377 18.3832 16.1078C18.9132 14.2342 18.4679 12.1706 17.0301 10.7328C15.5923 9.29501 13.5287 8.84977 11.6551 9.37969C11.1251 11.2534 11.5705 13.317 13.0082 14.7547Z" stroke="white" stroke-width="1.5" stroke-miterlimit="10" stroke-linecap="round" stroke-linejoin="round"/>
<path d="M21.9819 19.707L15.6069 13.332" stroke="white" stroke-width="1.5" stroke-miterlimit="10" stroke-linecap="round" stroke-linejoin="round"/>
</g>
<defs>
<clipPath id="clip0_702_2535">
<rect width="40" height="40" fill="white"/>
</clipPath>
</defs>
</svg>
